<svg width="23" height="20" viewBox="0 0 23 20" fill="none" xmlns="http://www.w3.org/2000/svg">
<path fill-rule="evenodd" clip-rule="evenodd" d="M11.9546 2.25644C13.0799 1.13067 14.6064 0.498169 16.1982 0.498169C17.7899 0.498169 19.3164 1.13063 20.4416 2.25636C21.5674 3.38164 22.2 4.90829 22.2 6.49999C22.2 8.09174 21.5675 9.61826 20.4417 10.7435C20.4417 10.7436 20.4417 10.7435 20.4417 10.7435L11.6017 19.5835C11.4065 19.7788 11.0899 19.7788 10.8946 19.5835L2.05461 10.7435C-0.289037 8.3999 -0.289037 4.60009 2.05461 2.25644C4.39826 -0.0872086 8.19807 -0.0872087 10.5417 2.25644L11.2482 2.96289L11.9546 2.25644C11.9546 2.25647 11.9546 2.25641 11.9546 2.25644ZM16.1982 1.49817C14.8717 1.49817 13.5996 2.02528 12.6618 2.96346L11.6017 4.02355C11.508 4.11732 11.3808 4.16999 11.2482 4.16999C11.1156 4.16999 10.9884 4.11732 10.8946 4.02355L9.83461 2.96355C7.88149 1.01042 4.71484 1.01042 2.76172 2.96355C0.808594 4.91667 0.808594 8.08332 2.76172 10.0364L11.2482 18.5229L19.7346 10.0364C20.6728 9.09869 21.2 7.82648 21.2 6.49999C21.2 5.17351 20.6729 3.90138 19.7347 2.96363C18.7969 2.02544 17.5247 1.49817 16.1982 1.49817Z" fill="#414141"/>
</svg>
